<?xml version="1.0" encoding="utf-8"?>
<!-- Generator: Adobe Illustrator 19.0.0, SVG Export Plug-In . SVG Version: 6.00 Build 0)  -->
<svg version="1.1" id="Layer_1" xmlns="http://www.w3.org/2000/svg" xmlns:xlink="http://www.w3.org/1999/xlink" x="0px" y="0px"
	 viewBox="5 -88 36 200" style="enable-background:new 5 -88 36 200;" xml:space="preserve">
<style type="text/css">
	.st0{fill:#F7CC46;stroke:#231F20;stroke-width:0.4;stroke-miterlimit:10;}
	.st1{fill:none;stroke:#231F20;stroke-width:0.4;stroke-miterlimit:10;}
	.st2{fill:#F7CC46;stroke:#231F20;stroke-width:0.4;stroke-linecap:round;stroke-linejoin:round;stroke-miterlimit:10;}
</style>
<g id="XMLID_36_">
	<rect id="XMLID_31_" x="12.2" y="-75.7" class="st0" width="21.6" height="175.5"/>
	<g id="XMLID_45_">
		<line id="XMLID_30_" class="st1" x1="33.8" y1="-75.7" x2="33.8" y2="99.7"/>
		<line id="XMLID_29_" class="st1" x1="12.2" y1="99.7" x2="12.2" y2="-75.7"/>
	</g>
</g>
<g id="XMLID_11_">
	<g id="XMLID_43_">
		<rect id="XMLID_9_" x="5" y="106.3" class="st2" width="36" height="5.7"/>
		<polyline id="XMLID_8_" class="st2" points="33.8,76 33.8,99.7 12.2,99.7 12.2,76 		"/>
		<path id="XMLID_7_" class="st2" d="M40.2,106.3c0-1.6-0.2-3.2-1.5-3.9c-1.3-0.8-4.9-2.6-4.9-2.6H12.2c0,0-3.6,1.9-4.9,2.6
			c-1.3,0.8-1.5,2.3-1.5,3.9H40.2z"/>
	</g>
</g>
<g id="XMLID_10_">
	<g id="XMLID_19_">
		<rect id="XMLID_22_" x="5" y="-88" class="st2" width="36" height="5.7"/>
		<polyline id="XMLID_21_" class="st2" points="12.2,-52 12.2,-75.7 33.8,-75.7 33.8,-52 		"/>
		<path id="XMLID_20_" class="st2" d="M5.8-82.3c0,1.6,0.2,3.2,1.5,3.9c1.3,0.8,4.9,2.6,4.9,2.6h21.6c0,0,3.6-1.9,4.9-2.6
			c1.3-0.8,1.5-2.3,1.5-3.9C40.2-82.3,5.8-82.3,5.8-82.3z"/>
	</g>
</g>
</svg>
