<?xml version="1.0" encoding="utf-8"?>
<!-- Generator: Adobe Illustrator 19.0.0, SVG Export Plug-In . SVG Version: 6.00 Build 0)  -->
<svg version="1.1" id="Layer_1" xmlns="http://www.w3.org/2000/svg" xmlns:xlink="http://www.w3.org/1999/xlink" x="0px" y="0px"
	 viewBox="0 0 36 200" style="enable-background:new 0 0 36 200;" xml:space="preserve">
<style type="text/css">
	.st0{fill:#F7CC46;stroke:#231F20;stroke-width:0.4;stroke-miterlimit:10;}
	.st1{fill:#F7CC46;stroke:#231F20;stroke-width:0.4;stroke-linecap:round;stroke-linejoin:round;stroke-miterlimit:10;}
</style>
<g id="XMLID_36_">
	<rect id="XMLID_31_" x="7.2" y="12.3" class="st0" width="21.6" height="175.5"/>
	<g id="XMLID_45_">
		<line id="XMLID_30_" class="st0" x1="28.8" y1="12.3" x2="28.8" y2="187.7"/>
		<line id="XMLID_29_" class="st0" x1="7.2" y1="187.7" x2="7.2" y2="12.3"/>
	</g>
	<g id="XMLID_37_">
		<line id="XMLID_28_" class="st0" x1="13.3" y1="12.3" x2="13.3" y2="187.7"/>
		<line id="XMLID_27_" class="st0" x1="10.5" y1="187.7" x2="10.5" y2="12.3"/>
		<line id="XMLID_26_" class="st0" x1="19.4" y1="12.3" x2="19.4" y2="187.7"/>
		<line id="XMLID_25_" class="st0" x1="16.6" y1="187.7" x2="16.6" y2="12.3"/>
		<line id="XMLID_24_" class="st0" x1="25.5" y1="12.3" x2="25.5" y2="187.7"/>
		<line id="XMLID_23_" class="st0" x1="22.7" y1="187.7" x2="22.7" y2="12.3"/>
	</g>
</g>
<g id="XMLID_11_">
	<g id="XMLID_43_">
		<rect id="XMLID_9_" x="0" y="194.3" class="st1" width="36" height="5.7"/>
		<polyline id="XMLID_8_" class="st1" points="28.8,164 28.8,187.7 7.2,187.7 7.2,164 		"/>
		<path id="XMLID_7_" class="st1" d="M35.2,194.3c0-1.6-0.2-3.2-1.5-3.9c-1.3-0.8-4.9-2.6-4.9-2.6H7.2c0,0-3.6,1.9-4.9,2.6
			c-1.3,0.8-1.5,2.3-1.5,3.9H35.2z"/>
	</g>
	<g id="XMLID_34_">
		<line id="XMLID_6_" class="st1" x1="22.7" y1="184.7" x2="22.7" y2="164"/>
		<line id="XMLID_5_" class="st1" x1="25.5" y1="164" x2="25.5" y2="184.7"/>
		<line id="XMLID_4_" class="st1" x1="16.6" y1="184.7" x2="16.6" y2="164"/>
		<line id="XMLID_3_" class="st1" x1="19.4" y1="164" x2="19.4" y2="184.7"/>
		<line id="XMLID_2_" class="st1" x1="10.5" y1="184.7" x2="10.5" y2="164"/>
		<line id="XMLID_1_" class="st1" x1="13.3" y1="164" x2="13.3" y2="184.7"/>
	</g>
</g>
<g id="XMLID_10_">
	<g id="XMLID_19_">
		<rect id="XMLID_22_" x="0" y="0" class="st1" width="36" height="5.7"/>
		<polyline id="XMLID_21_" class="st1" points="7.2,36 7.2,12.3 28.8,12.3 28.8,36 		"/>
		<path id="XMLID_20_" class="st1" d="M0.8,5.7c0,1.6,0.2,3.2,1.5,3.9c1.3,0.8,4.9,2.6,4.9,2.6h21.6c0,0,3.6-1.9,4.9-2.6
			c1.3-0.8,1.5-2.3,1.5-3.9H0.8z"/>
	</g>
	<g id="XMLID_12_">
		<line id="XMLID_18_" class="st1" x1="13.3" y1="15.3" x2="13.3" y2="36"/>
		<line id="XMLID_17_" class="st1" x1="10.5" y1="36" x2="10.5" y2="15.3"/>
		<line id="XMLID_16_" class="st1" x1="19.4" y1="15.3" x2="19.4" y2="36"/>
		<line id="XMLID_15_" class="st1" x1="16.6" y1="36" x2="16.6" y2="15.3"/>
		<line id="XMLID_14_" class="st1" x1="25.5" y1="15.3" x2="25.5" y2="36"/>
		<line id="XMLID_13_" class="st1" x1="22.7" y1="36" x2="22.7" y2="15.3"/>
	</g>
</g>
</svg>
