<?xml version="1.0" encoding="utf-8"?>
<!-- Generator: Adobe Illustrator 19.0.0, SVG Export Plug-In . SVG Version: 6.00 Build 0)  -->
<svg version="1.1" id="Layer_1" xmlns="http://www.w3.org/2000/svg" xmlns:xlink="http://www.w3.org/1999/xlink" x="0px" y="0px"
	 viewBox="0 0 300 40.5" style="enable-background:new 0 0 300 40.5;" xml:space="preserve">
<style type="text/css">
	.st0{fill:#EBF1F7;}
	.st1{fill:#007DFF;}
</style>
<g id="XMLID_2_">
	<g id="XMLID_56_">
		<path id="XMLID_111_" class="st0" d="M292.9,23.6v7.3h-7.3v-5.5h-1.8v5.5h-7.3V10.7H293v11h-3.7v1.8h3.6V23.6z M285.6,19.9v-5.5
			h-1.8v5.5H285.6z"/>
		<path id="XMLID_108_" class="st0" d="M270.9,10.7v20.1h-16.5V10.7H270.9z M263.6,25.4v-9.2h-1.8v9.2H263.6z"/>
		<polygon id="XMLID_107_" class="st0" points="248.9,10.7 248.9,27.2 247.1,27.2 247.1,29.1 245.3,29.1 245.3,30.9 236.1,30.9 
			236.1,29.1 234.3,29.1 234.3,27.2 232.4,27.2 232.4,10.7 239.8,10.7 239.8,23.6 241.6,23.6 241.6,10.7 		"/>
		<polygon id="XMLID_106_" class="st0" points="226.9,25.4 226.9,30.9 212.3,30.9 212.3,25.4 215.9,25.4 215.9,16.2 212.3,16.2 
			212.3,10.7 226.9,10.7 226.9,16.2 223.3,16.2 223.3,25.4 		"/>
		<polygon id="XMLID_105_" class="st0" points="206.8,10.7 206.8,27.2 205,27.2 205,29.1 203.1,29.1 203.1,30.9 194,30.9 194,29.1 
			192.1,29.1 192.1,27.2 190.3,27.2 190.3,10.7 197.6,10.7 197.6,23.6 199.5,23.6 199.5,10.7 		"/>
		<path id="XMLID_102_" class="st0" d="M184.8,23.6v7.3h-7.3v-5.5h-1.8v5.5h-7.4V10.7h16.5v11h-3.7v1.8h3.7V23.6z M177.5,19.9v-5.5
			h-1.8v5.5H177.5z"/>
		<polygon id="XMLID_101_" class="st0" points="162.8,10.7 162.8,30.9 146.4,30.9 146.4,10.7 153.7,10.7 153.7,23.6 155.5,23.6 
			155.5,10.7 		"/>
		<path id="XMLID_98_" class="st1" d="M294.7,8.9v23.8h-20.2V8.9H294.7z M292.9,30.9v-7.3h-3.7v-1.9h3.7v-11h-16.5v20.1h7.3v-5.5
			h1.8v5.5h7.4V30.9z"/>
		<rect id="XMLID_97_" x="283.7" y="14.4" class="st1" width="1.8" height="5.5"/>
		<path id="XMLID_94_" class="st1" d="M272.7,8.9v23.8h-20.2V8.9H272.7z M270.9,30.9V10.7h-16.5v20.1h16.5V30.9z"/>
		<rect id="XMLID_93_" x="261.8" y="16.2" class="st1" width="1.8" height="9.2"/>
		<polygon id="XMLID_92_" class="st1" points="250.8,8.9 250.8,27.2 248.9,27.2 248.9,10.7 241.6,10.7 241.6,23.6 239.8,23.6 
			239.8,10.7 232.4,10.7 232.4,27.2 230.6,27.2 230.6,8.9 		"/>
		<rect id="XMLID_91_" x="247.1" y="27.2" class="st1" width="1.8" height="1.8"/>
		<rect id="XMLID_90_" x="245.3" y="29.1" class="st1" width="1.8" height="1.8"/>
		<rect id="XMLID_89_" x="236.1" y="30.9" class="st1" width="9.2" height="1.8"/>
		<rect id="XMLID_88_" x="234.3" y="29.1" class="st1" width="1.8" height="1.8"/>
		<rect id="XMLID_87_" x="232.4" y="27.2" class="st1" width="1.8" height="1.8"/>
		<path id="XMLID_84_" class="st1" d="M228.8,23.6v9.1h-18.3v-9.2h3.7V18h-3.7V8.8h18.3V18h-3.7v5.5h3.7V23.6z M226.9,30.9v-5.5
			h-3.6v-9.2h3.7v-5.5h-14.7v5.5h3.7v9.2h-3.7v5.5H226.9z"/>
		<polygon id="XMLID_83_" class="st1" points="208.6,8.9 208.6,27.2 206.8,27.2 206.8,10.7 199.5,10.7 199.5,23.6 197.6,23.6 
			197.6,10.7 190.3,10.7 190.3,27.2 188.5,27.2 188.5,8.9 		"/>
		<rect id="XMLID_82_" x="205" y="27.2" class="st1" width="1.8" height="1.8"/>
		<rect id="XMLID_81_" x="203.1" y="29.1" class="st1" width="1.8" height="1.8"/>
		<rect id="XMLID_80_" x="194" y="30.9" class="st1" width="9.2" height="1.8"/>
		<rect id="XMLID_79_" x="192.1" y="29.1" class="st1" width="1.8" height="1.8"/>
		<rect id="XMLID_78_" x="190.3" y="27.2" class="st1" width="1.8" height="1.8"/>
		<path id="XMLID_75_" class="st1" d="M186.6,8.9v23.8h-20.1V8.9H186.6z M184.8,30.9v-7.3h-3.7v-1.9h3.7v-11h-16.5v20.1h7.3v-5.5
			h1.8v5.5h7.4V30.9z"/>
		<rect id="XMLID_74_" x="175.7" y="14.4" class="st1" width="1.8" height="5.5"/>
		<path id="XMLID_71_" class="st1" d="M164.7,8.9v23.8h-20.1V8.9H164.7z M162.8,30.9V10.7h-7.3v12.8h-1.8V10.7h-7.3v20.1h16.4V30.9z
			"/>
		<path id="XMLID_68_" class="st1" d="M142.7,8.9v23.8h-20.2V8.9H142.7z M140.9,30.9V18.1h-7.3v-1.8h7.3v-5.6h-16.5v12.8h7.3v1.8
			h-7.3v5.5h16.5V30.9z"/>
		<polygon id="XMLID_67_" class="st0" points="140.9,18.1 140.9,30.9 124.4,30.9 124.4,25.4 131.7,25.4 131.7,23.6 124.4,23.6 
			124.4,10.7 140.9,10.7 140.9,16.2 133.5,16.2 133.5,18.1 		"/>
		<path id="XMLID_64_" class="st1" d="M111.5,23.6v9.1H91.4V8.9h11v14.7H111.5z M109.7,30.9v-5.5h-9.2V10.7h-7.3v20.1h16.5V30.9z"/>
		<polygon id="XMLID_63_" class="st0" points="109.7,25.4 109.7,30.9 93.2,30.9 93.2,10.7 100.6,10.7 100.6,25.4 		"/>
		<path id="XMLID_60_" class="st1" d="M89.6,8.9v23.8H69.4V8.9H89.6z M87.7,30.9v-5.5h-7.3v-1.8h7.3v-5.5h-7.3v-1.8h7.3v-5.6H71.2
			v20.1h16.5V30.9z"/>
		<polygon id="XMLID_59_" class="st0" points="87.7,25.4 87.7,30.9 71.2,30.9 71.2,10.7 87.7,10.7 87.7,16.2 80.4,16.2 80.4,18.1 
			87.7,18.1 87.7,23.6 80.4,23.6 80.4,25.4 		"/>
		<path id="XMLID_46_" class="st1" d="M67.6,8.9v23.8H47.4V8.9H67.6z M65.7,30.9v-9.2H62v-1.8h3.7v-9.2h-7.3v3.7h-1.8v-3.7h-7.3v9.2
			H53v1.8h-3.7v9.2h7.3v-3.7h1.8v3.7H65.7z"/>
		<polygon id="XMLID_39_" class="st0" points="65.7,21.7 65.7,30.9 58.4,30.9 58.4,27.2 56.6,27.2 56.6,30.9 49.3,30.9 49.3,21.7 
			52.9,21.7 52.9,19.9 49.3,19.9 49.3,10.7 56.6,10.7 56.6,14.4 58.4,14.4 58.4,10.7 65.7,10.7 65.7,19.9 62.1,19.9 62.1,21.7 		"/>
		<path id="XMLID_25_" class="st1" d="M45.6,23.6v9.1H27.3v-9.2H31V18h-3.7V8.8h18.3V18h-3.7v5.5h3.7V23.6z M43.8,30.9v-5.5h-3.7
			v-9.2h3.7v-5.5H29.1v5.5h3.7v9.2h-3.7v5.5H43.8z"/>
		<polygon id="XMLID_22_" class="st0" points="43.8,25.4 43.8,30.9 29.1,30.9 29.1,25.4 32.8,25.4 32.8,16.2 29.1,16.2 29.1,10.7 
			43.8,10.7 43.8,16.2 40.1,16.2 40.1,25.4 		"/>
		<path id="XMLID_13_" class="st1" d="M25.4,8.9v16.5h-9.1v7.3h-11V8.9H25.4z M23.6,23.6V10.7H7.1v20.1h7.3v-7.3h9.2V23.6z"/>
		<path id="XMLID_3_" class="st0" d="M23.6,10.7v12.8h-9.2v7.3H7.1V10.7H23.6z M16.3,19.9v-5.5h-1.8v5.5H16.3z"/>
		<rect id="XMLID_1_" x="14.5" y="14.4" class="st1" width="1.8" height="5.5"/>
	</g>
	<g id="XMLID_57_">
	</g>
</g>
</svg>
