<?xml version="1.0" encoding="utf-8"?>
<!-- Generator: Adobe Illustrator 19.0.0, SVG Export Plug-In . SVG Version: 6.00 Build 0)  -->
<svg version="1.1" id="Layer_1" xmlns="http://www.w3.org/2000/svg" xmlns:xlink="http://www.w3.org/1999/xlink" x="0px" y="0px"
	 viewBox="-3 4.4 36.6 36.6" style="enable-background:new -3 4.4 36.6 36.6;" xml:space="preserve">
<style type="text/css">
	.st0{fill:none;stroke:#212121;stroke-miterlimit:10;}
	.st1{fill:#212121;}
	.st2{fill:none;}
</style>
<circle class="st0" cx="15.3" cy="22.7" r="16.7"/>
<path class="st1" d="M6,19v6.4h4.2l5.3,5.3V13.7L10.2,19H6z M20.3,22.2c0-1.9-1.1-3.5-2.6-4.3v8.5C19.2,25.7,20.3,24.1,20.3,22.2z
	 M17.6,12.9v2.2c3.1,0.9,5.3,3.7,5.3,7.1s-2.2,6.2-5.3,7.1v2.2c4.2-1,7.4-4.8,7.4-9.3S21.9,13.9,17.6,12.9z"/>
<path class="st2" d="M4,10.7h24v24H4V10.7z"/>
</svg>
