<?xml version="1.0" encoding="utf-8"?>
<!-- Generator: Adobe Illustrator 19.0.0, SVG Export Plug-In . SVG Version: 6.00 Build 0)  -->
<svg version="1.1" id="Layer_1" xmlns="http://www.w3.org/2000/svg" xmlns:xlink="http://www.w3.org/1999/xlink" x="0px" y="0px"
	 viewBox="-143.5 4.3 36.6 36.6" style="enable-background:new -143.5 4.3 36.6 36.6;" xml:space="preserve">
<style type="text/css">
	.st0{clip-path:url(#SVGID_2_);fill:#212121;}
	.st1{fill:none;stroke:#212121;stroke-miterlimit:10;}
	.st2{fill:none;stroke:#212121;stroke-width:2;stroke-miterlimit:10;}
</style>
<g>
	<defs>
		<rect id="SVGID_1_" x="-138" y="8.3" width="25.8" height="25.8"/>
	</defs>
	<clipPath id="SVGID_2_">
		<use xlink:href="#SVGID_1_"  style="overflow:visible;"/>
	</clipPath>
	<path class="st0" d="M-128.3,20.3v-4c0-1.5,1.2-2.7,2.7-2.7c1.5,0,2.7,1.2,2.7,2.7v4c1.3-0.9,2.1-2.3,2.1-4c0-2.7-2.2-4.8-4.8-4.8
		s-4.8,2.2-4.8,4.8C-130.5,18-129.6,19.4-128.3,20.3z M-117.8,25.3l-4.9-2.4c-0.2-0.1-0.4-0.1-0.6-0.1h-0.8v-6.4
		c0-0.9-0.7-1.6-1.6-1.6c-0.9,0-1.6,0.7-1.6,1.6v11.5L-131,27c-0.1,0-0.2,0-0.3,0c-0.3,0-0.6,0.1-0.8,0.4l-0.8,0.9l5.3,5.3
		c0.3,0.3,0.7,0.5,1.1,0.5h7.3c0.8,0,1.4-0.6,1.5-1.4l0.8-5.7c0-0.1,0-0.2,0-0.2C-116.8,26.1-117.2,25.5-117.8,25.3z"/>
</g>
<circle class="st1" cx="-125.2" cy="23" r="16.7"/>
<line class="st2" x1="-135.3" y1="36.3" x2="-114.3" y2="10.3"/>
</svg>
