<?xml version="1.0" encoding="utf-8"?>
<!-- Generator: Adobe Illustrator 19.0.0, SVG Export Plug-In . SVG Version: 6.00 Build 0)  -->
<svg version="1.1" id="Layer_1" xmlns="http://www.w3.org/2000/svg" xmlns:xlink="http://www.w3.org/1999/xlink" x="0px" y="0px"
	 viewBox="-132.4 7 28.8 28.5" style="enable-background:new -132.4 7 28.8 28.5;" xml:space="preserve">
<style type="text/css">
	.st0{fill:none;}
	.st1{fill:#3F3A3A;}
	.st2{fill:#EBF1F7;}
</style>
<path class="st0" d="M-133.2,5.5h24v24h-24V5.5z"/>
<circle class="st1" cx="-117.7" cy="21.2" r="12.7"/>
<path class="st2" d="M-117.3,12.2c-4.8,0-8.7,4-8.7,8.9h-2.9l3.8,3.9l0.1,0.1l3.9-4h-2.9c0-3.8,3-6.9,6.8-6.9s6.8,3.1,6.8,6.9
	s-3,6.9-6.8,6.9c-1.9,0-3.6-0.8-4.8-2l-1.4,1.4c1.6,1.6,3.8,2.6,6.2,2.6c4.8,0,8.8-4,8.8-8.9S-112.5,12.2-117.3,12.2z"/>
</svg>
