<?xml version="1.0" encoding="utf-8"?>
<!-- Generator: Adobe Illustrator 19.0.0, SVG Export Plug-In . SVG Version: 6.00 Build 0)  -->
<svg version="1.1" id="Layer_1" xmlns="http://www.w3.org/2000/svg" xmlns:xlink="http://www.w3.org/1999/xlink" x="0px" y="0px"
	 viewBox="-3 4.4 36.6 36.6" style="enable-background:new -3 4.4 36.6 36.6;" xml:space="preserve">
<style type="text/css">
	.st0{fill:none;stroke:#212121;stroke-miterlimit:10;}
	.st1{fill:none;}
	.st2{fill:#212121;}
</style>
<circle class="st0" cx="15.3" cy="22.7" r="16.7"/>
<path class="st1" d="M4,10.7h24v24H4V10.7z"/>
<path class="st2" d="M20.7,22.7c0-1.9-1.1-3.4-2.6-4.2v2.3l2.6,2.6C20.7,23.1,20.7,22.9,20.7,22.7z M23.3,22.7c0,1-0.2,1.9-0.6,2.8
	l1.6,1.6c0.7-1.3,1.1-2.8,1.1-4.3c0-4.5-3.1-8.2-7.3-9.2v2.2C21.1,16.6,23.3,19.4,23.3,22.7z M7.9,13.3l-1.3,1.3l4.9,4.9H6.6v6.3
	h4.2l5.2,5.2v-7l4.4,4.4c-0.7,0.5-1.5,1-2.4,1.2v2.2c1.4-0.3,2.8-1,3.9-1.9l2.1,2.1l1.3-1.3L16,21.4L7.9,13.3z M16,14.3l-2.2,2.2
	l2.2,2.2V14.3z"/>
</svg>
